<?xml version="1.0" encoding="UTF-8"?>
<svg width="512" height="512" version="1.1" viewBox="0 0 135.47 135.47" xmlns="http://www.w3.org/2000/svg">
 <g fill="#4f46e5">
  <path d="m67.733 16.933c-27.781 0-50.8 22.49-50.8 50.271 0 27.781 22.49 50.8 50.8 50.8 27.781 0 50.8-22.49 50.8-50.8 0-27.781-23.019-50.271-50.8-50.271zm0 90.488c-22.49 0-40.746-18.256-40.746-40.746s18.256-40.217 40.746-40.217c22.49 0 40.746 18.256 40.746 40.217s-18.256 40.746-40.746 40.746z"/>
  <path d="m62.442 49.213v-13.758h11.113v13.758h13.758v11.113h-13.758v26.194h-11.113v-26.194h-13.758v-11.113z"/>
 </g>
</svg> 