<?xml version="1.0" encoding="UTF-8"?>
<svg width="512" height="512" version="1.1" viewBox="0 0 135.47 135.47" xmlns="http://www.w3.org/2000/svg">
 <g fill="#f59e0b">
  <path d="m67.733 21.167-6.35 14.552-15.081 1.8521 11.377 10.054-3.4396 14.817 13.494-7.9375 13.494 7.9375-3.4396-14.817 11.377-10.054-15.081-1.8521z"/>
  <path d="m33.867 50.271-5.8208 13.229-13.758 1.5875 10.319 9.2604-3.175 13.494 12.435-7.4083 12.435 7.4083-3.175-13.494 10.319-9.2604-13.758-1.5875z"/>
  <path d="m101.6 50.271-5.8208 13.229-13.758 1.5875 10.319 9.2604-3.175 13.494 12.435-7.4083 12.435 7.4083-3.175-13.494 10.319-9.2604-13.758-1.5875z"/>
  <path d="m67.733 79.375-5.8208 13.229-13.758 1.5875 10.319 9.2604-3.175 13.494 12.435-7.4083 12.435 7.4083-3.175-13.494 10.319-9.2604-13.758-1.5875z"/>
 </g>
</svg> 