<?xml version="1.0" encoding="UTF-8"?>
<svg width="512" height="512" version="1.1" viewBox="0 0 135.47 135.47" xmlns="http://www.w3.org/2000/svg">
 <g fill="#f06292">
  <path d="m84.667 38.364c-8.7312-7.4083-20.108-11.906-32.279-11.906-27.781 0-50.271 22.49-50.271 50.271h13.229c0-20.46 16.581-37.042 37.042-37.042 8.9958 0 17.198 3.3073 23.596 8.7312z"/>
  <path d="m68.969 31.563 13.229-13.229 13.229 13.229z"/>
  <ellipse cx="29.633" cy="77.781" rx="7.9375" ry="6.6146"/>
  <path d="m119.06 50.271c-5.2916 0-9.2604 4.2333-9.2604 9.5249 0 2.3812 1.0583 4.4979 2.6458 6.0854-7.9375 8.9958-13.229 20.99-13.229 33.96h13.229c0-10.848 4.2333-20.99 11.113-28.669 9.5249-0.26458 16.933-7.9375 16.933-17.198 0-9.5249-9.5249-3.9688-21.431-3.7042z"/>
  <path d="m63.942 58.204c-3.4395 0-6.35 2.9104-6.35 6.35s2.9104 6.35 6.35 6.35 6.35-2.9104 6.35-6.35-2.9104-6.35-6.35-6.35zm0 9.3927c-1.6933 0-3.0427-1.3494-3.0427-3.0427s1.3494-3.0427 3.0427-3.0427 3.0427 1.3494 3.0427 3.0427-1.3494 3.0427-3.0427 3.0427z"/>
  <path d="m105.83 50.271c-7.9375 0-15.875 1.8521-22.754 5.2917-5.0271-6.8792-13.229-11.377-22.49-11.377-15.346 0-27.781 12.435-27.781 27.781 0 15.346 12.435 27.781 27.781 27.781 7.4083 0 14.288-2.9104 19.315-7.6729 0.26458 0 0.52917 0.26458 0.79375 0.26458 0.52917 0 1.0583-0.26458 1.5875-0.26458 5.2917 4.7625 12.171 7.6729 19.579 7.6729 2.6458 0 5.2917-0.26458 7.6729-1.0583v-19.315c0-16.404-1.3229-29.633-3.7042-29.633zm-45.244 39.688c-9.7896 0-17.992-7.9375-17.992-17.992 0-9.7896 7.9375-17.992 17.992-17.992 9.7896 0 17.992 7.9375 17.992 17.992s-8.2021 17.992-17.992 17.992z"/>
 </g>
</svg> 